<svg width="30" height="27" viewBox="0 0 30 27" fill="none" xmlns="http://www.w3.org/2000/svg">
<path d="M7.00016 24.3332H23.0002V11.2098L15.0002 3.93704L7.00016 11.2098V24.3332ZM24.3335 26.9998H5.66683C4.93046 26.9998 4.3335 26.4029 4.3335 25.6665V13.6665H0.333496L14.1032 1.14851C14.6118 0.686174 15.3886 0.686174 15.8971 1.14851L29.6668 13.6665H25.6668V25.6665C25.6668 26.4029 25.0699 26.9998 24.3335 26.9998ZM9.00016 16.3332H11.6668C11.6668 18.1741 13.1592 19.6665 15.0002 19.6665C16.8411 19.6665 18.3335 18.1741 18.3335 16.3332H21.0002C21.0002 19.6469 18.3139 22.3332 15.0002 22.3332C11.6865 22.3332 9.00016 19.6469 9.00016 16.3332Z" fill="#33272A"/>
</svg>
