<svg width="129" height="122" viewBox="0 0 129 122" fill="none" xmlns="http://www.w3.org/2000/svg">
<path d="M122.001 20.3325V13.5554H115.223V6.7771H108.446V0H81.3338V6.7771H74.5567V13.5555H67.7783V20.3326H61V13.5554H54.2229V6.7771H47.4446V0H20.3337V6.7771H13.5554V13.5555H6.7783V20.3326H0V61H6.7783V67.7771H13.5554V74.5554H20.3337V81.3337H27.1108V88.1108H33.8892V94.8892H40.6675V101.666H47.4446V108.445H54.2229V115.223H61V122H67.7784V115.223H74.5567V108.445H81.3338V101.666H88.1122V94.8892H94.8893V88.1108H101.668V81.3337H108.446V74.5554H115.223V67.7771H122.001V61H128.778V20.3325H122.001ZM122.001 54.2217H115.223V61H108.446V67.7771H101.667V74.5554H94.8892V81.3337H88.1121V88.1108H81.3337V94.8892H74.5566V101.666H67.7783V108.445H60.9999V101.666H54.2228V94.8892H47.4445V88.1108H40.6674V81.3337H33.8891V74.5554H27.1107V67.7771H20.3336V61H13.5554V54.2217H6.7783V27.1108H13.5554V20.3325H20.3337V13.5554H27.1108V6.7771H40.6675V13.5555H47.4446V20.3326H54.2229V27.1109H61V33.8892H67.7783V27.1109H74.5567V20.3326H81.3338V13.5554H88.1121V6.7771H101.668V13.5555H108.446V20.3326H115.223V27.1109H122.001L122.001 54.2217Z" fill="#33272A"/>
<path d="M115.223 27.1111V20.3328H108.446V13.5556H101.668V6.77734H88.1121V13.5557H81.3337V20.3328H74.5566V27.1111H67.7783V33.8895H60.9999V27.1111H54.2228V20.3328H47.4445V13.5556H40.6674V6.77734H27.1108V13.5557H20.3337V20.3328H13.5554V27.1111H6.77832V54.222H13.5554V61.0003H20.3337V67.7774H27.1108V74.5557H33.8892V81.334H40.6675V88.1111H47.4446V94.8894H54.2229V101.667H61V108.445H67.7784V101.667H74.5567V94.8894H81.3338V88.1111H88.1122V81.334H94.8893V74.5557H101.668V67.7774H108.446V61.0003H115.223V54.2219H122.001V27.1111L115.223 27.1111ZM115.223 47.4449H108.446V33.8895H101.668V27.1111H88.1121V33.8895H81.3337V27.1111H88.1121V20.3328H101.668V27.1111H108.446V33.8895H115.223V47.4449Z" fill="#D83868"/>
<path d="M115.222 33.8892H108.445V47.4446H115.222V33.8892Z" fill="white"/>
<path d="M88.1123 27.1108H81.334V33.8891H88.1123V27.1108Z" fill="white"/>
<path d="M101.667 20.3325H88.1113V27.1109H101.667V20.3325Z" fill="white"/>
<path d="M108.445 27.1108H101.667V33.8891H108.445V27.1108Z" fill="white"/>
</svg>
