<svg width="24" height="28" viewBox="0 0 24 28" fill="none" xmlns="http://www.w3.org/2000/svg">
<path d="M4.67301 0.666504H19.3397C19.7593 0.666504 20.1545 0.864091 20.4064 1.19984L24.0064 5.99984V25.9998C24.0064 26.7362 23.4094 27.3332 22.673 27.3332H1.33968C0.603308 27.3332 0.00634766 26.7362 0.00634766 25.9998V5.99984L3.60635 1.19984C3.85816 0.864091 4.25335 0.666504 4.67301 0.666504ZM21.3397 8.6665H2.67301V24.6665H21.3397V8.6665ZM20.673 5.99984L18.673 3.33317H5.33968L3.33968 5.99984H20.673ZM8.00635 11.3332V13.9998C8.00635 16.209 9.79717 17.9998 12.0064 17.9998C14.2154 17.9998 16.0064 16.209 16.0064 13.9998V11.3332H18.673V13.9998C18.673 17.6817 15.6882 20.6665 12.0064 20.6665C8.32445 20.6665 5.33968 17.6817 5.33968 13.9998V11.3332H8.00635Z" fill="#33272A"/>
</svg>
